<svg xmlns="http://www.w3.org/2000/svg" width="180" height="140" viewBox="0 0 180 140">
  <defs>
    <linearGradient id="bossPlane" x1="0" y1="0" x2="0" y2="1">
      <stop offset="0%" stop-color="#ffe2e8"/>
      <stop offset="45%" stop-color="#ff547d"/>
      <stop offset="100%" stop-color="#5e1326"/>
    </linearGradient>
  </defs>
  <polygon points="90,10 112,30 108,114 72,114 68,30" fill="url(#bossPlane)" stroke="#ffe5ec" stroke-width="3"/>
  <polygon points="16,54 70,34 60,78 8,70" fill="#7d1a34" stroke="#ffd7e1" stroke-width="3"/>
  <polygon points="164,54 110,34 120,78 172,70" fill="#7d1a34" stroke="#ffd7e1" stroke-width="3"/>
  <polygon points="40,76 70,64 62,106 30,118" fill="#4f1223"/>
  <polygon points="140,76 110,64 118,106 150,118" fill="#4f1223"/>
  <rect x="78" y="22" width="24" height="20" rx="8" fill="#2a0a14"/>
  <circle cx="90" cy="32" r="6" fill="#fff4ae"/>
  <rect x="80" y="0" width="20" height="18" rx="6" fill="#ffb347"/>
</svg>
