<svg xmlns="http://www.w3.org/2000/svg" width="96" height="96" viewBox="0 0 96 96">
  <defs>
    <linearGradient id="e1" x1="0" y1="0" x2="0" y2="1">
      <stop offset="0%" stop-color="#ffd8e0"/>
      <stop offset="40%" stop-color="#ff6b87"/>
      <stop offset="100%" stop-color="#8f1636"/>
    </linearGradient>
    <linearGradient id="e2" x1="0" y1="0" x2="1" y2="1">
      <stop offset="0%" stop-color="#ffb26b"/>
      <stop offset="100%" stop-color="#ff4f5e"/>
    </linearGradient>
  </defs>
  <polygon points="48,8 70,24 82,58 60,86 36,86 14,58 26,24" fill="url(#e1)" stroke="#ffe0e8" stroke-width="2"/>
  <polygon points="18,30 40,38 30,64 8,56" fill="url(#e2)" stroke="#ffe7bf" stroke-width="2"/>
  <polygon points="78,30 56,38 66,64 88,56" fill="url(#e2)" stroke="#ffe7bf" stroke-width="2"/>
  <rect x="34" y="22" width="28" height="16" rx="7" fill="#3d0d16"/>
  <circle cx="40" cy="30" r="4" fill="#fff"/>
  <circle cx="56" cy="30" r="4" fill="#fff"/>
  <rect x="30" y="48" width="36" height="10" rx="5" fill="#2d0811"/>
  <polygon points="42,58 54,58 50,74 46,74" fill="#ffd166"/>
</svg>
