<svg xmlns="http://www.w3.org/2000/svg" width="96" height="96" viewBox="0 0 96 96">
  <defs>
    <linearGradient id="fighterA" x1="0" y1="0" x2="0" y2="1">
      <stop offset="0%" stop-color="#ffe8c2"/>
      <stop offset="45%" stop-color="#ffb04d"/>
      <stop offset="100%" stop-color="#8e3b10"/>
    </linearGradient>
  </defs>
  <polygon points="48,8 58,26 54,76 42,76 38,26" fill="url(#fighterA)" stroke="#fff1d8" stroke-width="2"/>
  <polygon points="20,42 42,34 36,58 14,54" fill="#763014" stroke="#ffddba" stroke-width="2"/>
  <polygon points="76,42 54,34 60,58 82,54" fill="#763014" stroke="#ffddba" stroke-width="2"/>
  <polygon points="30,56 42,52 40,72 28,76" fill="#55210c"/>
  <polygon points="66,56 54,52 56,72 68,76" fill="#55210c"/>
  <polygon points="48,76 56,88 48,84 40,88" fill="#332018"/>
  <rect x="44" y="20" width="8" height="12" rx="3" fill="#251814"/>
  <circle cx="48" cy="26" r="3" fill="#fff2c6"/>
</svg>
