<svg xmlns="http://www.w3.org/2000/svg" width="120" height="120" viewBox="0 0 120 120">
  <defs>
    <linearGradient id="bomber" x1="0" y1="0" x2="0" y2="1">
      <stop offset="0%" stop-color="#ffd7d7"/>
      <stop offset="50%" stop-color="#d94d6b"/>
      <stop offset="100%" stop-color="#6d1730"/>
    </linearGradient>
  </defs>
  <polygon points="60,8 76,28 72,94 48,94 44,28" fill="url(#bomber)" stroke="#ffe6ea" stroke-width="3"/>
  <polygon points="18,48 48,34 44,66 12,62" fill="#7d2038" stroke="#ffd6df" stroke-width="3"/>
  <polygon points="102,48 72,34 76,66 108,62" fill="#7d2038" stroke="#ffd6df" stroke-width="3"/>
  <polygon points="34,62 48,56 44,84 28,90" fill="#521323"/>
  <polygon points="86,62 72,56 76,84 92,90" fill="#521323"/>
  <rect x="54" y="22" width="12" height="16" rx="4" fill="#2c0f17"/>
  <circle cx="60" cy="30" r="4" fill="#fff0b0"/>
  <rect x="54" y="0" width="12" height="18" rx="4" fill="#ffb347"/>
</svg>
