<svg xmlns="http://www.w3.org/2000/svg" width="96" height="96" viewBox="0 0 96 96">
  <defs>
    <linearGradient id="body" x1="0" y1="0" x2="0" y2="1">
      <stop offset="0%" stop-color="#dffcff"/>
      <stop offset="45%" stop-color="#6be7ff"/>
      <stop offset="100%" stop-color="#1682ff"/>
    </linearGradient>
    <linearGradient id="wing" x1="0" y1="0" x2="1" y2="1">
      <stop offset="0%" stop-color="#6ef7ff"/>
      <stop offset="100%" stop-color="#006bff"/>
    </linearGradient>
  </defs>
  <polygon points="48,6 63,30 55,72 41,72 33,30" fill="url(#body)" stroke="#ffffff" stroke-width="2"/>
  <polygon points="24,42 43,34 34,74 12,66" fill="url(#wing)" stroke="#d7ffff" stroke-width="2"/>
  <polygon points="72,42 53,34 62,74 84,66" fill="url(#wing)" stroke="#d7ffff" stroke-width="2"/>
  <polygon points="48,68 62,86 48,81 34,86" fill="#ff9f43" stroke="#ffe5b0" stroke-width="2"/>
  <rect x="42" y="20" width="12" height="16" rx="4" fill="#082b55"/>
  <circle cx="48" cy="28" r="4" fill="#bff7ff"/>
  <polygon points="22,70 32,62 36,78 24,84" fill="#0b3c75"/>
  <polygon points="74,70 64,62 60,78 72,84" fill="#0b3c75"/>
</svg>
